<?xml version="1.0" encoding="UTF-8"?>
<svg width="42px" height="20px" viewBox="0 0 42 20" version="1.1" xmlns="http://www.w3.org/2000/svg" xmlns:xlink="http://www.w3.org/1999/xlink">
    <title>Group 33</title>
    <g id="808_Summary-Tech-specification:-Size-and-Shape" stroke="none" stroke-width="1" fill="none" fill-rule="evenodd">
        <g id="Artboard" transform="translate(-587.000000, -104.000000)">
            <g id="Group-33" transform="translate(587.000000, 104.000000)">
                <g id="Group-32" transform="translate(-0.000000, 0.000000)">
                    <g id="Group-27" transform="translate(35.200000, 1.171573)" stroke="#002C5F">
                        <g id="Group-28" transform="translate(-0.000000, -0.000000)">
                            <polyline id="Rectangle" transform="translate(2.828427, 14.828427) rotate(-315.000000) translate(-2.828427, -14.828427) " points="4.82842712 12.8284271 4.82842712 16.8284271 0.828427125 16.8284271"></polyline>
                            <polyline id="Rectangle-Copy-4" transform="translate(2.828427, 2.828427) rotate(-135.000000) translate(-2.828427, -2.828427) " points="4.82842712 0.828427125 4.82842712 4.82842712 0.828427125 4.82842712"></polyline>
                            <line x1="2.8" y1="0.328427125" x2="2.8" y2="17.3284271" id="Line-2" stroke-linecap="square"></line>
                        </g>
                    </g>
                    <path d="M22.1093687,0 L22.3855909,0.231245816 C24.4472608,1.95722072 24.8538787,2.29344284 25.1321478,2.62368297 L25.1924931,2.69753362 C25.2420545,2.75993114 25.2910926,2.82563866 25.3493029,2.90344403 L25.4241785,3.00317987 C25.9453024,3.69353682 26.3356302,4.48415931 26.5945935,5.37008632 L26.5945935,5.37008632 L26.6090038,5.39098399 L26.9269082,4.09270671 L29.3373626,4.96513568 C29.9735794,5.16788288 30.3599333,5.5693461 30.1436426,6.11614924 C29.9963078,6.48862571 29.583363,6.72774756 29.0074975,6.87460945 C28.7740032,6.93415708 28.3988623,6.98163607 27.7322992,7.04648811 L27.7322992,7.04648811 L29.264663,9.35459572 L29.264663,18.592092 L29.2620386,18.6178271 C29.1737939,19.4831544 28.6577093,20 27.8306643,20 L27.8306643,20 L25.2161509,20 L25.1926514,19.9978349 C24.3689025,19.9219386 23.8735356,19.4258413 23.8735356,18.6341079 L23.8735356,18.6341079 L23.8735356,18.3135114 L6.33054604,18.3135114 L6.33054604,18.6341079 C6.33054604,19.4258413 5.83517915,19.9219386 5.01143024,19.9978349 L4.98793075,20 L2.37341734,20 C1.54637236,20 1.03028773,19.4831544 0.94204308,18.6178271 L0.939418655,18.592092 L0.939418655,9.35459572 L2.47178246,7.04648811 C1.80521937,6.98163607 1.43007847,6.93415708 1.1965841,6.87460945 C0.620718635,6.72774756 0.207773841,6.48862571 0.0604389832,6.11614924 C-0.155851629,5.5693461 0.230502215,5.16788288 0.866719025,4.96513568 L3.27717338,4.09270671 L3.59507782,5.39098399 L3.60948809,5.37008632 C3.86845141,4.48415931 4.25877927,3.69353682 4.77990317,3.00317987 L4.85477875,2.90344403 C4.91298908,2.82563866 4.96202714,2.75993114 5.01158851,2.69753362 L5.07193386,2.62368297 C5.35020294,2.29344284 5.75682083,1.95722072 7.81849073,0.231245816 L8.0947129,0 L22.1093687,0 Z M21.7365904,1.02040816 L8.46749119,1.02040816 C6.38263726,2.76578177 6.05847747,3.03372408 5.80296759,3.34827614 L5.7486496,3.41694898 C5.70323252,3.47569654 5.65615057,3.53940168 5.59776884,3.61674266 C5.13861874,4.22500006 4.79628933,4.9284296 4.57136038,5.72819554 L4.54843333,5.80971584 L3.79335525,6.90472464 L1.96299219,9.66169063 L1.96299219,18.5390155 C2.00225169,18.8851377 2.10268033,18.9795918 2.37341734,18.9795918 L4.9394576,18.9795918 C5.23623002,18.9490351 5.3069725,18.8724868 5.3069725,18.6341079 L5.3069725,17.2931033 L24.8971091,17.2931033 L24.8971091,18.6341079 C24.8971091,18.8724868 24.9678516,18.9490351 25.264624,18.9795918 L25.264624,18.9795918 L27.8306643,18.9795918 C28.1014013,18.9795918 28.2018299,18.8851377 28.2410894,18.5390155 L28.2410894,18.5390155 L28.2410894,9.66169063 L26.4107264,6.90472464 L25.6556483,5.80971584 L25.6327213,5.72819554 C25.4077923,4.9284296 25.0654629,4.22500006 24.6063128,3.61674266 C24.5479311,3.53940168 24.5008491,3.47569654 24.455432,3.41694898 L24.401114,3.34827614 C24.3554873,3.29210613 24.3076714,3.2374224 24.2480316,3.17554669 L24.1701716,3.09728828 C23.8734809,2.80741347 23.3002309,2.32943837 21.7365904,1.02040816 L21.7365904,1.02040816 Z M10.5666764,15.1020408 L10.3447459,14.5055943 C9.96677635,13.4897872 9.45990562,12.5650541 8.62243525,11.3958083 C8.60221901,11.3675831 8.58163053,11.3393465 8.55460921,11.3026648 C8.5207891,11.2568505 8.5023989,11.2319287 8.48713001,11.211072 C8.42955867,11.1324317 8.39040543,11.0761442 8.35437241,11.0180797 C8.23214625,10.8211216 8.1699257,10.6372183 8.19352452,10.4205991 C8.21324386,10.2395907 8.29388282,10.0792371 8.42224435,9.93660737 C8.7449172,9.5780673 8.98557142,9.37289323 9.40559209,9.09286963 C9.68153883,8.90889868 10.2160964,8.65677379 10.4839137,8.587694 L10.4839137,8.587694 L10.5469735,8.57142857 L19.8535606,8.57142857 L19.9166205,8.587694 C20.1844378,8.65677379 20.7189953,8.90889868 20.9949421,9.09286963 C21.4149627,9.37289323 21.655617,9.5780673 21.9782898,9.93660737 C22.1066513,10.0792371 22.1872903,10.2395907 22.2070096,10.4205991 C22.2306084,10.6372183 22.1683879,10.8211216 22.0461617,11.0180797 C22.0101287,11.0761442 21.9709755,11.1324317 21.9134041,11.211072 C21.8981353,11.2319287 21.8797451,11.2568505 21.8459249,11.3026648 C21.8189036,11.3393465 21.7983151,11.3675831 21.7780989,11.3958083 C20.9406285,12.5650541 20.4337578,13.4897872 20.0557883,14.5055943 L19.8338578,15.1020408 L10.5666764,15.1020408 Z M19.1220473,14.0816327 C19.5302973,13.0039459 20.0757946,12.0165164 20.9450835,10.8028469 C20.9683744,10.7703288 20.9914302,10.7387083 21.020916,10.6986811 L21.071115,10.6306228 C21.0769821,10.6226503 21.0819637,10.6158659 21.0866065,10.609524 C21.1082703,10.5799321 21.1257522,10.5555768 21.1402054,10.5347741 C20.9159,10.2942316 20.7420021,10.1518002 20.4259342,9.94108087 C20.2590586,9.82982656 19.8930466,9.65393533 19.7129454,9.59183673 L10.6875887,9.59183673 C10.5074875,9.65393533 10.1414755,9.82982656 9.97459993,9.94108087 C9.65853201,10.1518002 9.48463419,10.2942316 9.26032873,10.5347741 C9.27478191,10.5555768 9.29226384,10.5799321 9.3139276,10.609524 C9.32785614,10.6285498 9.34483391,10.6515576 9.37961813,10.6986811 C9.40910393,10.7387083 9.4321597,10.7703288 9.4554507,10.8028469 C10.3247395,12.0165164 10.8702368,13.0039459 11.2784869,14.0816327 L11.2784869,14.0816327 L19.1220473,14.0816327 Z M2.55350161,5.44020696 L1.37666995,5.86614409 C1.40043412,5.87294782 1.42497814,5.87958776 1.45026458,5.88603651 C1.62185225,5.9297962 2.01374277,5.97769255 2.68314773,6.04169888 C2.6849519,6.04187139 2.69120688,6.04246193 2.7012044,6.04340451 L2.55350161,5.44020696 Z M27.65058,5.44020696 L27.5028772,6.04340451 C27.5128747,6.04246193 27.5191297,6.04187139 27.5209339,6.04169888 C28.1903389,5.97769255 28.5822294,5.9297962 28.7538171,5.88603651 C28.7791035,5.87958776 28.8036475,5.87294782 28.8274117,5.86614409 L28.8274117,5.86614409 L27.65058,5.44020696 Z" id="front-view" fill="#002C5F" fill-rule="nonzero"></path>
                </g>
            </g>
        </g>
    </g>
</svg>