<?xml version="1.0" encoding="utf-8"?>
<!-- Generator: Adobe Illustrator 24.1.2, SVG Export Plug-In . SVG Version: 6.00 Build 0)  -->
<svg version="1.1" id="레이어_1" xmlns="http://www.w3.org/2000/svg" xmlns:xlink="http://www.w3.org/1999/xlink" x="0px"
	 y="0px" viewBox="0 0 36 36" style="enable-background:new 0 0 36 36;" xml:space="preserve">
<style type="text/css">
	.st0{clip-path:url(#SVGID_2_);}
	.st1{clip-path:url(#SVGID_4_);fill:#FFFFFF;}
</style>
<g>
	<defs>
		<path id="SVGID_1_" d="M25.21,21.72l1.74,0.16c0.26,0.03,0.51-0.15,0.57-0.41l0.43-1.62c0.06-0.26-0.07-0.53-0.31-0.65l-1.59-0.76
			c-0.31-0.15-0.51-0.46-0.53-0.81c-0.05-1-0.3-1.98-0.74-2.88c-0.15-0.31-0.12-0.69,0.07-0.98l1-1.48
			c0.15-0.22,0.13-0.53-0.06-0.72l-1.17-1.2c-0.19-0.19-0.48-0.22-0.7-0.06l-1.41,1.04c-0.28,0.2-0.64,0.23-0.94,0.07
			c-0.87-0.45-1.82-0.71-2.78-0.76c-0.35-0.02-0.66-0.23-0.8-0.56l-0.74-1.64c-0.11-0.25-0.37-0.38-0.62-0.32l-1.57,0.44
			c-0.26,0.08-0.42,0.33-0.39,0.6l0.15,1.8c0.03,0.35-0.13,0.69-0.41,0.88c-0.4,0.28-0.77,0.6-1.11,0.95
			c-0.34,0.35-0.65,0.73-0.92,1.15c-0.19,0.29-0.51,0.45-0.85,0.42l-1.77-0.13c-0.26-0.03-0.51,0.15-0.58,0.41l-0.43,1.61
			c-0.06,0.26,0.07,0.53,0.31,0.64l1.58,0.76c0.31,0.15,0.51,0.46,0.53,0.81c0.05,1,0.31,1.98,0.74,2.88
			c0.15,0.31,0.12,0.69-0.07,0.97l-1,1.48c-0.15,0.22-0.13,0.53,0.06,0.72l1.17,1.21c0.19,0.19,0.48,0.22,0.7,0.06l1.43-1.04h0
			c0.28-0.2,0.64-0.23,0.94-0.07c0.87,0.45,1.82,0.71,2.78,0.76c0.34,0.02,0.64,0.24,0.78,0.56l0.74,1.64
			c0.11,0.25,0.38,0.38,0.64,0.31l1.57-0.44c0.25-0.08,0.4-0.33,0.38-0.6l-0.16-1.8c-0.03-0.35,0.13-0.69,0.41-0.88
			c0.81-0.56,1.51-1.28,2.04-2.11C24.54,21.85,24.87,21.68,25.21,21.72L25.21,21.72z M24.75,24.66c-0.3,0.31-0.62,0.6-0.95,0.86
			l0.11,1.25c0.1,1.2-0.64,2.3-1.76,2.61l-1.56,0.43c-1.12,0.31-2.3-0.26-2.79-1.34l-0.51-1.15c-0.84-0.1-1.66-0.33-2.44-0.67
			l-1,0.72c-0.95,0.69-2.24,0.57-3.06-0.28L9.63,25.9c-0.82-0.85-0.93-2.19-0.26-3.17l0.7-1.03h0c-0.33-0.8-0.55-1.64-0.66-2.5
			L8.3,18.67c-1.06-0.51-1.61-1.74-1.3-2.9l0.42-1.62h0c0.3-1.16,1.37-1.92,2.52-1.81l1.21,0.11c0.51-0.7,1.11-1.32,1.78-1.85
			l-0.1-1.25c-0.1-1.2,0.64-2.29,1.76-2.61l1.56-0.43c1.12-0.31,2.3,0.26,2.79,1.34l0.51,1.15c0.84,0.1,1.66,0.33,2.44,0.67l1-0.72
			h0c0.95-0.69,2.24-0.58,3.06,0.28l1.15,1.18c0.82,0.85,0.94,2.19,0.27,3.17l-0.7,1.03h0c0.33,0.8,0.55,1.64,0.66,2.5l1.11,0.53
			c1.06,0.51,1.61,1.74,1.3,2.9l-0.42,1.62h0c-0.3,1.16-1.37,1.92-2.52,1.81l-1.21-0.11C25.32,24.01,25.05,24.35,24.75,24.66z
			 M20.24,16.11c-0.76-0.79-1.9-1.02-2.9-0.6c-0.99,0.42-1.64,1.43-1.64,2.54c0,1.11,0.65,2.11,1.64,2.54
			c0.99,0.42,2.14,0.19,2.9-0.6C21.28,18.92,21.28,17.18,20.24,16.11z M21.55,14.76c1.29,1.33,1.67,3.33,0.98,5.07
			c-0.7,1.74-2.34,2.88-4.16,2.88c-1.82,0-3.46-1.13-4.15-2.88c-0.7-1.74-0.31-3.74,0.97-5.07C16.94,12.94,19.79,12.94,21.55,14.76z
			 M1.58,18.05c0,4.6,1.77,9.02,4.92,12.27c3.15,3.26,7.42,5.08,11.87,5.08c0.51,0,0.92-0.43,0.92-0.95s-0.41-0.95-0.92-0.95
			c-3.96,0-7.76-1.63-10.56-4.52c-2.8-2.9-4.38-6.83-4.38-10.93S5,10.02,7.8,7.12C7.83,7.1,7.87,7.06,7.9,7.01V9.3
			c0,0.53,0.41,0.95,0.92,0.95c0.51,0,0.92-0.42,0.92-0.95V4.73c0-0.25-0.1-0.5-0.27-0.67C9.3,3.87,9.07,3.77,8.82,3.77H4.4
			c-0.51,0-0.92,0.43-0.92,0.95S3.89,5.68,4.4,5.68h2.21c-0.04,0.03-0.08,0.07-0.12,0.1C3.34,9.03,1.57,13.45,1.58,18.05z
			 M30.23,30.33c-0.04,0.04-0.08,0.07-0.12,0.1h2.22c0.51,0,0.92,0.42,0.92,0.95s-0.41,0.95-0.92,0.95H27.9
			c-0.51,0-0.92-0.43-0.92-0.95V26.8c0-0.53,0.41-0.95,0.92-0.95c0.51,0,0.92,0.42,0.92,0.95v2.29l0.09-0.11
			c2.8-2.9,4.38-6.83,4.38-10.92c0-4.1-1.57-8.03-4.37-10.93c-2.8-2.9-6.6-4.53-10.56-4.53c-0.51,0-0.92-0.43-0.92-0.95
			s0.41-0.95,0.92-0.95c4.45,0,8.72,1.83,11.86,5.08c3.15,3.25,4.91,7.67,4.91,12.27S33.38,27.07,30.23,30.33z"/>
	</defs>
	<clipPath id="SVGID_2_">
		<use xlink:href="#SVGID_1_"  style="overflow:visible;"/>
	</clipPath>
	<g class="st0">
		<defs>
			<rect id="SVGID_3_" x="-796.93" y="-1138.06" width="1624.81" height="9634.28"/>
		</defs>
		<clipPath id="SVGID_4_">
			<use xlink:href="#SVGID_3_"  style="overflow:visible;"/>
		</clipPath>
		<rect x="-4.2" y="-5.09" class="st1" width="45.13" height="46.29"/>
	</g>
</g>
</svg>
