<?xml version="1.0" encoding="utf-8"?>
<!-- Generator: Adobe Illustrator 24.1.2, SVG Export Plug-In . SVG Version: 6.00 Build 0)  -->
<svg version="1.1" id="레이어_1" xmlns="http://www.w3.org/2000/svg" xmlns:xlink="http://www.w3.org/1999/xlink" x="0px"
	 y="0px" viewBox="0 0 16 16" style="enable-background:new 0 0 16 16;" xml:space="preserve">
<style type="text/css">
	.st0{fill:#152E56;}
</style>
<g>
	<path class="st0" d="M13.17,11.11H4.42c-1.06,0-1.93-0.87-1.93-1.93V1.2H0.62v-1h2.87v8.99c0,0.51,0.42,0.93,0.93,0.93h8.75V11.11z
		"/>
	<path class="st0" d="M5.29,15.8c-1.06,0-1.93-0.87-1.93-1.93s0.87-1.93,1.93-1.93s1.93,0.87,1.93,1.93S6.36,15.8,5.29,15.8z
		 M5.29,12.94c-0.51,0-0.93,0.42-0.93,0.93c0,0.51,0.42,0.93,0.93,0.93s0.93-0.42,0.93-0.93C6.22,13.36,5.81,12.94,5.29,12.94z"/>
	<path class="st0" d="M11.01,15.8c-1.06,0-1.93-0.87-1.93-1.93s0.87-1.93,1.93-1.93s1.93,0.87,1.93,1.93S12.07,15.8,11.01,15.8z
		 M11.01,12.94c-0.51,0-0.93,0.42-0.93,0.93c0,0.51,0.42,0.93,0.93,0.93s0.93-0.42,0.93-0.93C11.94,13.36,11.52,12.94,11.01,12.94z"
		/>
	<path class="st0" d="M11.3,8.66H3.08v-1h8.22c0.81,0,1.51-0.61,1.63-1.42l0.46-3.3H3.08v-1h11.46l-0.62,4.44
		C13.74,7.68,12.61,8.66,11.3,8.66z"/>
</g>
</svg>
