<?xml version="1.0" encoding="utf-8"?>
<!-- Generator: Adobe Illustrator 24.1.2, SVG Export Plug-In . SVG Version: 6.00 Build 0)  -->
<svg version="1.1" xmlns="http://www.w3.org/2000/svg" xmlns:xlink="http://www.w3.org/1999/xlink" x="0px" y="0px"
	 viewBox="0 0 16 16" style="enable-background:new 0 0 16 16;" xml:space="preserve">
<style type="text/css">
	.st0{display:none;}
	.st1{display:inline;}
	.st2{fill:#FFFFFF;}
	.st3{fill:#0C7B97;}
</style>
<g id="레이어_1" class="st0">
	<g class="st1">
		<path class="st2" d="M13.17,11.11H4.42c-1.06,0-1.93-0.87-1.93-1.93V1.2H0.62v-1h2.87v8.99c0,0.51,0.42,0.93,0.93,0.93h8.75V11.11
			z"/>
		<path class="st2" d="M5.29,15.8c-1.06,0-1.93-0.87-1.93-1.93s0.87-1.93,1.93-1.93s1.93,0.87,1.93,1.93S6.36,15.8,5.29,15.8z
			 M5.29,12.94c-0.51,0-0.93,0.42-0.93,0.93c0,0.51,0.42,0.93,0.93,0.93s0.93-0.42,0.93-0.93C6.22,13.36,5.81,12.94,5.29,12.94z"/>
		<path class="st2" d="M11.01,15.8c-1.06,0-1.93-0.87-1.93-1.93s0.87-1.93,1.93-1.93s1.93,0.87,1.93,1.93S12.07,15.8,11.01,15.8z
			 M11.01,12.94c-0.51,0-0.93,0.42-0.93,0.93c0,0.51,0.42,0.93,0.93,0.93s0.93-0.42,0.93-0.93C11.94,13.36,11.52,12.94,11.01,12.94z
			"/>
		<path class="st2" d="M11.3,8.66H3.08v-1h8.22c0.81,0,1.51-0.61,1.63-1.42l0.46-3.3H3.08v-1h11.46l-0.62,4.44
			C13.74,7.68,12.61,8.66,11.3,8.66z"/>
	</g>
</g>
<g id="레이어_2">
	<path class="st3" d="M13.3,15.62H5.12c-0.29,0-0.53-0.23-0.53-0.52c0-0.29,0.24-0.52,0.53-0.52h8.18c0.38,0,0.69-0.3,0.69-0.67
		v-0.73H4.6v0.76c0,0.6-0.33,1.15-0.86,1.45c-0.52,0.3-1.18,0.3-1.7,0c-0.53-0.3-0.86-0.85-0.86-1.45V0.8
		c0-0.29,0.24-0.52,0.52-0.52h11.37c0.29,0,0.52,0.23,0.52,0.52v10.41c0,0.29-0.24,0.52-0.52,0.52c-0.29,0-0.53-0.23-0.53-0.52v-9.9
		H2.23v12.63c0,0.35,0.3,0.63,0.66,0.63s0.66-0.28,0.66-0.63v-1.28c0-0.29,0.24-0.52,0.53-0.52h10.44c0.29,0,0.53,0.23,0.53,0.52
		v1.25C15.04,14.85,14.26,15.61,13.3,15.62z M9.54,9.19H4.36c-0.29,0-0.52-0.23-0.52-0.52c0-0.29,0.24-0.52,0.52-0.52h5.18
		c0.29,0,0.53,0.23,0.53,0.52C10.06,8.95,9.83,9.19,9.54,9.19z M10.35,6.82H4.36c-0.29,0-0.52-0.23-0.52-0.52s0.24-0.52,0.52-0.52
		h5.99c0.29,0,0.53,0.23,0.53,0.52v0.01C10.86,6.6,10.63,6.82,10.35,6.82z M7.51,4.45H4.36c-0.29,0-0.52-0.23-0.52-0.52
		s0.24-0.52,0.52-0.52h3.15c0.29,0,0.53,0.23,0.53,0.52S7.8,4.45,7.51,4.45z"/>
</g>
</svg>
