<?xml version="1.0" encoding="utf-8"?>
<!-- Generator: Adobe Illustrator 24.1.2, SVG Export Plug-In . SVG Version: 6.00 Build 0)  -->
<svg version="1.1" id="레이어_1" xmlns="http://www.w3.org/2000/svg" xmlns:xlink="http://www.w3.org/1999/xlink" x="0px"
	 y="0px" viewBox="0 0 22 22" style="enable-background:new 0 0 22 22;" xml:space="preserve">
<style type="text/css">
	.st0{clip-path:url(#SVGID_2_);}
	.st1{clip-path:url(#SVGID_4_);stroke:#FFFFFF;stroke-miterlimit:10;}
	.st2{fill:#152E56;}
</style>
<g>
	<defs>
		<path id="SVGID_1_" d="M101.37-661.86c-0.31,0-0.6,0.16-0.77,0.42l-0.81-0.55c0.09-0.15,0.14-0.32,0.14-0.5
			c0-0.17-0.05-0.34-0.14-0.49l0.82-0.53c0.18,0.25,0.46,0.4,0.76,0.4c0.52,0,0.94-0.42,0.94-0.94c0-0.52-0.42-0.94-0.94-0.94
			c-0.52,0-0.94,0.42-0.94,0.94c0,0.04,0,0.08,0.01,0.12l-0.98,0.64c-0.14-0.08-0.31-0.13-0.47-0.13c-0.52,0-0.94,0.42-0.94,0.94
			s0.42,0.94,0.94,0.94c0.16,0,0.32-0.04,0.46-0.12l0.99,0.67c0,0.02,0,0.05,0,0.08c0,0.52,0.42,0.94,0.94,0.94
			c0.52,0,0.94-0.42,0.94-0.94C102.31-661.44,101.89-661.86,101.37-661.86 M101.37-664.53c0.27,0,0.48,0.22,0.48,0.48
			c0,0.27-0.22,0.48-0.48,0.48c-0.27,0-0.48-0.22-0.48-0.48C100.89-664.32,101.1-664.53,101.37-664.53 M101.37-661.41
			c0.27,0,0.48,0.22,0.48,0.48c0,0.27-0.22,0.48-0.48,0.48c-0.27,0-0.48-0.22-0.48-0.48C100.89-661.19,101.1-661.41,101.37-661.41
			 M99.47-662.49c0,0.27-0.22,0.48-0.48,0.48c-0.27,0-0.48-0.22-0.48-0.48s0.22-0.48,0.48-0.48
			C99.26-662.97,99.47-662.75,99.47-662.49"/>
	</defs>
	<use xlink:href="#SVGID_1_"  style="overflow:visible;"/>
	<clipPath id="SVGID_2_">
		<use xlink:href="#SVGID_1_"  style="overflow:visible;"/>
	</clipPath>
	<g class="st0">
		<defs>
			<rect id="SVGID_3_" x="-156.94" y="-873.24" width="351" height="1768.25"/>
		</defs>
		<use xlink:href="#SVGID_3_"  style="overflow:visible;"/>
		<clipPath id="SVGID_4_">
			<use xlink:href="#SVGID_3_"  style="overflow:visible;"/>
		</clipPath>
		<rect x="97.81" y="-665.24" class="st1" width="4.75" height="5.5"/>
		<use xlink:href="#SVGID_3_"  style="overflow:visible;fill:none;stroke:#FFFFFF;stroke-miterlimit:10;"/>
	</g>
	<use xlink:href="#SVGID_1_"  style="overflow:visible;fill:none;stroke:#FFFFFF;stroke-miterlimit:10;"/>
</g>
<path class="st2" d="M16.35,13.63c-1.31,0-2.53,0.67-3.25,1.75l-3.4-2.3c0.39-0.61,0.59-1.33,0.59-2.1c0-0.72-0.2-1.42-0.57-2.04
	l3.44-2.24c0.73,1.04,1.92,1.67,3.19,1.67c2.17,0,3.92-1.77,3.92-3.93c0-2.17-1.76-3.94-3.92-3.94c-2.16,0-3.92,1.77-3.92,3.94
	c0,0.16,0.01,0.32,0.03,0.48L8.34,7.6c-0.6-0.34-1.28-0.53-1.97-0.53c-2.17,0-3.92,1.77-3.92,3.94s1.76,3.94,3.92,3.94
	c0.68,0,1.34-0.18,1.92-0.51l4.16,2.81c-0.01,0.1-0.02,0.21-0.02,0.32c0,2.17,1.76,3.94,3.92,3.94c2.17,0,3.92-1.77,3.92-3.94
	C20.28,15.4,18.52,13.63,16.35,13.63 M16.35,2.43c1.12,0,2.02,0.91,2.02,2.03c0,1.12-0.91,2.02-2.02,2.02
	c-1.12,0-2.02-0.91-2.02-2.02C14.33,3.33,15.24,2.43,16.35,2.43 M16.35,15.54c1.12,0,2.02,0.91,2.02,2.02
	c0,1.12-0.91,2.03-2.02,2.03c-1.12,0-2.02-0.91-2.02-2.03C14.33,16.44,15.24,15.54,16.35,15.54 M8.39,11.01
	c0,1.12-0.91,2.03-2.02,2.03c-1.12,0-2.02-0.91-2.02-2.03s0.91-2.03,2.02-2.03C7.49,8.98,8.39,9.89,8.39,11.01"/>
</svg>
