<?xml version="1.0" encoding="utf-8"?>
<!-- Generator: Adobe Illustrator 24.1.2, SVG Export Plug-In . SVG Version: 6.00 Build 0)  -->
<svg version="1.1" id="레이어_1" xmlns="http://www.w3.org/2000/svg" xmlns:xlink="http://www.w3.org/1999/xlink" x="0px"
	 y="0px" viewBox="0 0 64 64" style="enable-background:new 0 0 64 64;" xml:space="preserve">
<style type="text/css">
	.st0{fill:#162E56;stroke:#FFFFFF;stroke-width:0.5;stroke-miterlimit:10;}
</style>
<path class="st0" d="M3.35,27.18h57.62v29.49c0,2.37-1.87,4.24-4.24,4.24H7.59c-2.37,0-4.24-1.87-4.24-4.24V27.18z M46.94,13.12
	c1.57,0,2.81,1.24,2.81,2.81s-1.24,2.81-2.81,2.81c-1.57,0-2.81-1.24-2.81-2.81S45.37,13.12,46.94,13.12z M17.43,13.12
	c1.57,0,2.81,1.24,2.81,2.81s-1.24,2.81-2.81,2.81s-2.81-1.24-2.81-2.81S15.86,13.12,17.43,13.12z M23.03,4.69
	c-0.78,0-1.4,0.63-1.4,1.41c0,0.78,0.63,1.4,1.4,1.4H41.3c0.78,0,1.41-0.63,1.41-1.4c0-0.78-0.63-1.41-1.41-1.41H23.03z M7.59,4.69
	c-3.88,0-7.05,3.17-7.05,7.05v44.93c0,3.88,3.17,7.05,7.05,7.05h49.15c3.88,0,7.05-3.17,7.05-7.05V11.74c0-3.88-3.17-7.05-7.05-7.05
	h-4.19c-0.74-0.01-1.43,0.66-1.43,1.41s0.69,1.42,1.43,1.4h4.19c2.37,0,4.24,1.87,4.24,4.24v12.63H3.35V11.74
	c0-2.37,1.87-4.24,4.24-4.24h4.19c0.74,0.01,1.43-0.66,1.43-1.4s-0.69-1.42-1.43-1.41H7.59z M46.94,0.47
	c-0.78,0-1.41,0.63-1.41,1.41v8.63c-2.41,0.63-4.22,2.82-4.22,5.42c0,3.09,2.53,5.62,5.62,5.62c3.09,0,5.62-2.53,5.62-5.62
	c0-2.6-1.8-4.79-4.22-5.42V1.88C48.35,1.1,47.72,0.47,46.94,0.47z M17.43,0.47c-0.78,0-1.41,0.63-1.41,1.41v8.63
	c-2.41,0.63-4.22,2.82-4.22,5.42c0,3.09,2.53,5.62,5.62,5.62s5.62-2.53,5.62-5.62c0-2.6-1.8-4.79-4.22-5.42V1.88
	C18.83,1.1,18.2,0.47,17.43,0.47z"/>
</svg>
