<?xml version="1.0" encoding="utf-8"?>
<!-- Generator: Adobe Illustrator 24.1.2, SVG Export Plug-In . SVG Version: 6.00 Build 0)  -->
<svg version="1.1" id="레이어_1" xmlns="http://www.w3.org/2000/svg" xmlns:xlink="http://www.w3.org/1999/xlink" x="0px"
	 y="0px" viewBox="0 0 18.17 18.78" style="enable-background:new 0 0 18.17 18.78;" xml:space="preserve">
<style type="text/css">
	.st0{fill:#152E56;}
	.st1{fill:#142D54;}
</style>
<g>
	<path class="st0" d="M16.97,3.86l-2.36-2.41l-1.74,1.77l2.36,2.41L16.97,3.86z M14.67,6.2l-2.36-2.41L1.89,14.41l-0.73,3.15
		l3.1-0.75L14.67,6.2z M17.39,4.21c0,0.1-0.04,0.19-0.1,0.26l-2.15,2.19L5.01,16.97H4.99C4.97,16.99,4.95,17,4.93,17.01l-0.07,0.03
		H4.83l-3.59,0.87H1.16c-0.11,0-0.22-0.05-0.3-0.14s-0.1-0.21-0.07-0.32l0.85-3.66c0,0,0,0,0-0.03c0.02-0.05,0.04-0.09,0.07-0.13
		V13.6L14.01,1.15c0.14-0.15,0.38-0.15,0.52,0l2.75,2.79C17.35,4.01,17.39,4.11,17.39,4.21z"/>
	<path class="st1" d="M1.22,18.41c-0.25,0-0.46-0.07-0.62-0.19l-0.11,0.03l0.03-0.11c-0.02-0.02-0.03-0.04-0.05-0.05
		c-0.17-0.21-0.23-0.49-0.17-0.75l0.86-3.73c0.01-0.03,0.03-0.07,0.04-0.1v-0.07l0.14-0.17L13.66,0.79
		c0.16-0.17,0.38-0.26,0.61-0.26c0,0,0,0,0,0c0.23,0,0.45,0.09,0.61,0.26l2.75,2.8c0.16,0.18,0.25,0.4,0.25,0.63v0
		c-0.01,0.22-0.09,0.43-0.24,0.58L5.22,17.47l-0.14,0.02l-3.84,0.92C1.23,18.41,1.23,18.41,1.22,18.41z M2.35,14.66l-0.52,2.23
		L4,16.37L13.97,6.2l-1.66-1.69L2.35,14.66z M13.57,3.23l1.66,1.69l1.04-1.06l-1.66-1.69L13.57,3.23z"/>
</g>
</svg>
