<?xml version="1.0" encoding="UTF-8"?>
<svg width="53px" height="34px" viewBox="0 0 53 34" version="1.1" xmlns="http://www.w3.org/2000/svg" xmlns:xlink="http://www.w3.org/1999/xlink">
    <title>Group 2</title>
    <g id="808_Summary-Tech-specification:-Size-and-Shape" stroke="none" stroke-width="1" fill="none" fill-rule="evenodd">
        <g id="Artboard" transform="translate(-656.000000, -98.000000)">
            <g id="Group-2" transform="translate(657.000000, 98.000000)">
                <line x1="0.5" y1="29.4642857" x2="0.5" y2="0.535714286" id="Line-3" stroke="#999999" stroke-linecap="square" stroke-dasharray="2,3"></line>
                <line x1="50.5" y1="29.4642857" x2="50.5" y2="0.535714286" id="Line-3-Copy" stroke="#999999" stroke-linecap="square" stroke-dasharray="2,3"></line>
                <path d="M41.7280425,2 L36.0557689,2.0032299 L30.4225079,2.01273335 L26.4133027,2.02848332 L25.1374635,2.03930053 L24.7042769,2.04601307 L24.4726976,2.05293735 L24.4281233,2.05560772 L24.3716368,2.06161564 L24.3650398,2.06263501 L24.4067083,2.0594233 C23.3487758,2.13298928 22.1603991,2.45029335 20.8614397,2.97622926 C19.670027,3.45862061 18.412772,4.1053415 17.1213951,4.87604989 C16.0963039,5.48783597 15.1076949,6.14262358 14.1913265,6.79749377 L14.0855355,6.87333274 L13.8811585,7.02122948 L13.6866368,7.16378967 L13.4139842,7.36684967 L13.1149437,7.59455178 L12.6974611,7.66739403 L12.4026933,7.71994076 L11.9350118,7.80512798 L11.6073785,7.86605514 L11.2680079,7.93020356 C9.78905245,8.21201823 8.30985994,8.52259932 6.9276735,8.85306891 L6.51210453,8.95372882 L6.24165048,9.02072133 L5.97653122,9.08762666 L5.58896987,9.18782888 L5.33741723,9.25453163 L5.0913831,9.32115948 L4.73279394,9.42096853 L4.50078575,9.48742451 L4.27447979,9.5538179 L4.05392856,9.62015219 L3.83918456,9.68643089 L3.63030027,9.75265753 L3.42732819,9.81883561 C3.39399511,9.82986143 3.36091056,9.84088538 3.32807564,9.85190753 L3.1340703,9.91801935 C3.10223824,9.92903457 3.07065799,9.94004814 3.03933064,9.95106012 L2.85441015,10.0171136 L2.67561184,10.0831325 C2.64632522,10.094133 2.61729588,10.1051322 2.5885249,10.1161301 L2.41900829,10.1821039 L2.25574509,10.2480519 L2.0987878,10.3139777 C1.586165,10.5336971 1.17951553,10.7531045 0.887588237,10.972785 L0.965402984,10.9246063 L0.858895242,10.994377 L0.83354588,11.0198115 C0.268082432,11.5871734 3.90798505e-13,12.4479172 3.90798505e-13,13.579607 L3.90798505e-13,16.2050631 L0.000574034598,16.2798065 C0.0233334516,17.7106464 0.693705742,18.5967669 1.9451395,18.7708616 L1.9667147,18.7733914 L5.95595698,19.1541427 L5.96871512,19.186209 C6.66045836,20.8651322 8.30727271,22 10.1740129,22 L10.2538551,21.9993073 C12.0588282,21.9679734 13.6469213,20.8762213 14.3465751,19.2636147 L14.3844381,19.1731326 L38.6947305,19.177981 L38.7006019,19.1925638 C39.3939623,20.8681722 41.039047,22 42.9032715,22 L42.9830028,21.9993092 C44.7854788,21.9680617 46.371874,20.8793125 47.0730449,19.2700178 L47.1110904,19.1795972 L47.3317036,19.1797134 L49.9002629,18.0342989 L49.9292739,18.0202351 L49.9784245,17.9944392 C50.6819323,17.6085158 51.0230799,16.8918399 51.0230799,15.9205814 L51.0230799,10.373412 L49.9250286,8.99616732 L49.925131,7.86999666 L49.6767199,7.60811969 C49.602091,7.5296868 49.5277691,7.45206424 49.4537537,7.37525213 L49.232626,7.14724732 L49.0133329,6.92410602 L48.7958704,6.70582899 L48.5802343,6.49241699 L48.3664208,6.28387079 C48.1890011,6.11210991 48.0134757,5.94541837 47.8398341,5.78379814 L47.6323677,5.59228823 C47.5635132,5.52926309 47.4949594,5.46704948 47.4267057,5.40564754 L47.2228442,5.22387685 L47.020779,5.0469769 C46.9537229,4.98882213 46.8869656,4.93147928 46.8205063,4.87494847 L46.6220218,4.70779231 C46.5890899,4.68033902 46.5562323,4.65308877 46.523449,4.62604158 L46.3276396,4.46619527 L46.1336085,4.31122314 L45.9413517,4.16112595 C45.8775614,4.11190613 45.8140662,4.06349893 45.7508653,4.01590447 L45.562145,3.87555946 C45.4995322,3.82959062 45.4372131,3.78443465 45.3751871,3.74009168 L45.1899873,3.6095019 C43.9611743,2.755165 42.8493092,2.22607851 41.8490361,2.02325889 L41.7280425,2 Z M41.6316989,3.00990732 L41.6536502,3.01429458 C42.4181674,3.17019043 43.2864697,3.56416374 44.2550547,4.19692486 L44.4270218,4.31106749 C44.4846907,4.34994139 44.5427058,4.38964169 44.6010666,4.43016853 L44.7771848,4.55422883 C45.0429151,4.74403917 45.3156288,4.95058996 45.595261,5.17389439 L45.7827067,5.32524616 C45.8141182,5.35088518 45.845615,5.37673106 45.8771969,5.40278384 L46.0677095,5.5615833 L46.2602613,5.72534897 C46.3247847,5.78076533 46.3896471,5.83700953 46.4548481,5.89408172 L46.6514655,6.06778241 C46.7173426,6.12651072 46.7835575,6.18606717 46.8501093,6.2464519 L47.0507753,6.43009108 L47.2534591,6.6187008 C47.2874076,6.65055001 47.3214401,6.68260637 47.3555563,6.71486988 L47.5612588,6.91093705 C47.59571,6.94402928 47.6302448,6.9773287 47.6648631,7.01083534 L47.8735747,7.2143619 L48.0842871,7.42286247 L48.296996,7.63633793 L48.511697,7.85478914 L48.7283859,8.07821696 L48.914928,8.27293532 L48.9150305,9.34976568 L50.0129794,10.7268736 L50.0129794,15.9205814 L50.0123101,15.9871973 C50.0002683,16.5777367 49.8258783,16.9260702 49.5007637,17.1044642 L49.4729076,17.11879 L47.116747,18.1694966 L46.3878408,18.1696636 L46.2761701,18.5221688 C45.8144376,19.979696 44.4564771,20.9898994 42.9032715,20.9898994 C41.3495257,20.9898994 39.9912043,19.9789955 39.5299248,18.5207534 L39.4183703,18.1680962 L13.6600001,18.1630927 L13.5487003,18.5165057 C13.0887832,19.9768921 11.7293795,20.9898994 10.1740129,20.9898994 C8.61817357,20.9898994 7.25845439,19.9762782 6.79893551,18.5152663 L6.68784269,18.1620536 L6.18625991,18.1616178 L2.07434252,17.7688907 L2.0843205,17.7703958 C1.36155771,17.6698478 1.02584906,17.2260969 1.01059491,16.2677834 L1.01008485,16.2010781 L1.01008485,13.579607 L1.0107308,13.4917416 C1.02248508,12.6803565 1.1983738,12.1121191 1.51457614,11.7687882 L1.53959528,11.7424287 L1.54747696,11.7372064 C1.73503159,11.6136136 1.96636666,11.4884543 2.23873642,11.3620219 L2.37832815,11.2987009 C2.40215912,11.2881302 2.42627188,11.277551 2.45066484,11.2669634 L2.60037223,11.2033395 C2.65138701,11.1820991 2.70350985,11.1608267 2.75672806,11.1395237 L2.91965606,11.0755243 L3.08907996,11.0113493 L3.26492348,10.947007 L3.44711036,10.8825055 C3.47799921,10.8717424 3.5091492,10.8609731 3.54055872,10.8501976 L3.73211763,10.7854726 L3.92982921,10.7206087 L4.1336172,10.6556141 L4.34340534,10.5904971 L4.55911734,10.5252656 L4.78067693,10.4599279 L5.00800786,10.3944921 L5.24103384,10.3289664 L5.4796786,10.263359 L5.84801413,10.1648122 L6.10037218,10.099036 L6.35808206,10.0332065 L6.62106751,9.96733187 L7.02527053,9.86845323 C7.07082236,9.85746311 7.11658606,9.84647197 7.16256003,9.83547996 C8.41405511,9.53625762 9.74893988,9.25293883 11.0909564,8.9928136 L11.6266507,8.89026936 L11.9572315,8.82828848 L12.4301841,8.7414154 L12.7290255,8.68767657 L13.2105714,8.60320083 L13.4078529,8.5696418 L13.5365614,8.5482403 L13.7139666,8.4084252 L13.8880931,8.27474131 L14.1072515,8.10954652 L14.2866787,7.97634937 L14.476173,7.83747772 L14.675431,7.69328792 C14.7094374,7.6688329 14.743838,7.64417115 14.7786264,7.61931008 C15.6737317,6.9796352 16.639648,6.33987775 17.6390525,5.74342177 C18.8891794,4.99733182 20.1019348,4.37350113 21.2405253,3.91249699 L21.3742768,3.85896143 C22.5292064,3.40207917 23.5732567,3.12991922 24.4767789,3.06709054 L24.5898882,3.05920023 L24.8645124,3.05332787 L25.8715016,3.04239646 L30.5848568,3.02242808 L35.1800211,3.01431253 L40.63066,3.01030574 L41.6316989,3.00990732 Z" id="Combined-Shape-Copy-5" fill="#002C5F" fill-rule="nonzero"></path>
                <g id="Group-36" transform="translate(0.678146, 27.080000)" stroke="#002C5F">
                    <g id="Group-27" transform="translate(24.989354, 2.828427) rotate(-270.000000) translate(-24.989354, -2.828427) translate(22.160927, -22.160927)">
                        <g id="Group-28" transform="translate(-0.000000, 0.000000)">
                            <polyline id="Rectangle" transform="translate(2.828427, 47.150282) rotate(-315.000000) translate(-2.828427, -47.150282) " points="4.82842712 45.1502815 4.82842712 49.1502815 0.828427125 49.1502815"></polyline>
                            <polyline id="Rectangle-Copy-4" transform="translate(2.828427, 2.828427) rotate(-135.000000) translate(-2.828427, -2.828427) " points="4.82842712 0.828427125 4.82842712 4.82842712 0.828427125 4.82842712"></polyline>
                            <line x1="2.83" y1="1.15685425" x2="2.83" y2="49.1568542" id="Line-2" stroke-linecap="square"></line>
                        </g>
                    </g>
                </g>
            </g>
        </g>
    </g>
</svg>