<?xml version="1.0" encoding="UTF-8"?>
<svg width="52px" height="34px" viewBox="0 0 52 34" version="1.1" xmlns="http://www.w3.org/2000/svg" xmlns:xlink="http://www.w3.org/1999/xlink">
    <title>Group</title>
    <g id="808_Summary-Tech-specification:-Size-and-Shape" stroke="none" stroke-width="1" fill="none" fill-rule="evenodd">
        <g id="Artboard" transform="translate(-725.000000, -98.000000)">
            <g id="Group" transform="translate(725.000000, 98.535714)">
                <line x1="10" y1="28.9285714" x2="10" y2="4.4941828e-13" id="Line-3-Copy-2" stroke="#999999" stroke-linecap="square" stroke-dasharray="2,3"></line>
                <line x1="43" y1="28.9285714" x2="43" y2="4.4941828e-13" id="Line-3-Copy-3" stroke="#999999" stroke-linecap="square" stroke-dasharray="2,3"></line>
                <g id="Group-28" transform="translate(26.809610, 29.464286) rotate(-270.000000) translate(-26.809610, -29.464286) translate(23.809610, 12.617041)" stroke="#002C5F">
                    <polyline id="Rectangle" transform="translate(2.828427, 30.866062) rotate(-315.000000) translate(-2.828427, -30.866062) " points="4.82842714 28.8660621 4.82842714 32.8660621 0.828427127 32.8660621"></polyline>
                    <polyline id="Rectangle-Copy-4" transform="translate(3.171573, 2.828427) rotate(-135.000000) translate(-3.171573, -2.828427) " points="5.17157288 0.828427125 5.17157288 4.82842712 1.17157288 4.82842712"></polyline>
                    <line x1="3.00166829" y1="0.6463316" x2="3.00166829" y2="32.6673769" id="Line-2" stroke-linecap="square"></line>
                </g>
                <path d="M41.7280425,1.46428571 L36.0557689,1.46751561 L30.4225079,1.47701907 L26.4133027,1.49276904 L25.1374635,1.50358625 L24.7042769,1.51029879 L24.4726976,1.51722306 L24.4281233,1.51989344 L24.3716368,1.52590136 L24.3650398,1.52692072 L24.4067083,1.52370902 C23.3487758,1.59727499 22.1603991,1.91457906 20.8614397,2.44051498 C19.670027,2.92290632 18.412772,3.56962721 17.1213951,4.34033561 C16.0963039,4.95212168 15.1076949,5.6069093 14.1913265,6.26177948 L14.0855355,6.33761845 L13.8811585,6.48551519 L13.6866368,6.62807538 L13.4139842,6.83113538 L13.1149437,7.05883749 L12.6974611,7.13167975 L12.4026933,7.18422648 L11.9350118,7.2694137 L11.6073785,7.33034085 L11.2680079,7.39448927 C9.78905245,7.67630395 8.30985994,7.98688504 6.9276735,8.31735463 L6.51210453,8.41801453 L6.24165048,8.48500704 L5.97653122,8.55191238 L5.58896987,8.6521146 L5.33741723,8.71881734 L5.0913831,8.7854452 L4.73279394,8.88525424 L4.50078575,8.95171023 L4.27447979,9.01810361 L4.05392856,9.0844379 L3.83918456,9.15071661 L3.63030027,9.21694325 L3.42732819,9.28312132 C3.39399511,9.29414715 3.36091056,9.3051711 3.32807564,9.31619325 L3.1340703,9.38230506 C3.10223824,9.39332029 3.07065799,9.40433385 3.03933064,9.41534583 L2.85441015,9.48139929 L2.67561184,9.54741823 C2.64632522,9.5584187 2.61729588,9.56941789 2.5885249,9.58041585 L2.41900829,9.64638959 L2.25574509,9.7123376 L2.0987878,9.77826337 C1.586165,9.99798279 1.17951553,10.2173902 0.887588237,10.4370707 L0.965402984,10.388892 L0.858895242,10.4586627 L0.83354588,10.4840972 C0.268082432,11.0514591 -5.18696197e-13,11.9122029 -5.18696197e-13,13.0438927 L-5.18696197e-13,15.6693488 L0.000574034597,15.7440923 C0.0233334516,17.1749321 0.693705742,18.0610526 1.9451395,18.2351473 L1.9667147,18.2376771 L5.95595698,18.6184284 L5.96871512,18.6504947 C6.66045836,20.3294179 8.30727271,21.4642857 10.1740129,21.4642857 L10.2538551,21.463593 C12.0588282,21.4322591 13.6469213,20.340507 14.3465751,18.7279004 L14.3844381,18.6374183 L38.6947305,18.6422668 L38.7006019,18.6568495 C39.3939623,20.332458 41.039047,21.4642857 42.9032715,21.4642857 L42.9830028,21.463595 C44.7854788,21.4323475 46.371874,20.3435983 47.0730449,18.7343035 L47.1110904,18.6438829 L47.3317036,18.6439991 L49.9002629,17.4985846 L49.9292739,17.4845208 L49.9784245,17.458725 C50.6819323,17.0728015 51.0230799,16.3561256 51.0230799,15.3848671 L51.0230799,9.83769774 L49.9250286,8.46045304 L49.925131,7.33428237 L49.6767199,7.07240541 C49.602091,6.99397251 49.5277691,6.91634995 49.4537537,6.83953785 L49.232626,6.61153304 L49.0133329,6.38839173 L48.7958704,6.1701147 L48.5802343,5.9567027 L48.3664208,5.7481565 C48.1890011,5.57639562 48.0134757,5.40970408 47.8398341,5.24808386 L47.6323677,5.05657394 C47.5635132,4.9935488 47.4949594,4.9313352 47.4267057,4.86993326 L47.2228442,4.68816256 L47.020779,4.51126262 C46.9537229,4.45310784 46.8869656,4.39576499 46.8205063,4.33923418 L46.6220218,4.17207803 C46.5890899,4.14462473 46.5562323,4.11737448 46.523449,4.09032729 L46.3276396,3.93048098 L46.1336085,3.77550885 L45.9413517,3.62541167 C45.8775614,3.57619185 45.8140662,3.52778464 45.7508653,3.48019019 L45.562145,3.33984518 C45.4995322,3.29387634 45.4372131,3.24872037 45.3751871,3.2043774 L45.1899873,3.07378761 C43.9611743,2.21945072 42.8493092,1.69036423 41.8490361,1.4875446 L41.7280425,1.46428571 Z M41.6316989,2.47419304 L41.6536502,2.47858029 C42.4181674,2.63447615 43.2864697,3.02844946 44.2550547,3.66121057 L44.4270218,3.77535321 C44.4846907,3.8142271 44.5427058,3.8539274 44.6010666,3.89445424 L44.7771848,4.01851454 C45.0429151,4.20832488 45.3156288,4.41487568 45.595261,4.6381801 L45.7827067,4.78953188 C45.8141182,4.81517089 45.845615,4.84101678 45.8771969,4.86706955 L46.0677095,5.02586902 L46.2602613,5.18963469 C46.3247847,5.24505104 46.3896471,5.30129524 46.4548481,5.35836743 L46.6514655,5.53206812 C46.7173426,5.59079644 46.7835575,5.65035289 46.8501093,5.71073762 L47.0507753,5.89437679 L47.2534591,6.08298651 C47.2874076,6.11483573 47.3214401,6.14689208 47.3555563,6.1791556 L47.5612588,6.37522276 C47.59571,6.40831499 47.6302448,6.44161442 47.6648631,6.47512106 L47.8735747,6.67864761 L48.0842871,6.88714819 L48.296996,7.10062364 L48.511697,7.31907485 L48.7283859,7.54250267 L48.914928,7.73722103 L48.9150305,8.8140514 L50.0129794,10.1911593 L50.0129794,15.3848671 L50.0123101,15.451483 C50.0002683,16.0420225 49.8258783,16.3903559 49.5007637,16.5687499 L49.4729076,16.5830757 L47.116747,17.6337823 L46.3878408,17.6339493 L46.2761701,17.9864545 C45.8144376,19.4439818 44.4564771,20.4541851 42.9032715,20.4541851 C41.3495257,20.4541851 39.9912043,19.4432812 39.5299248,17.9850391 L39.4183703,17.632382 L13.6600001,17.6273784 L13.5487003,17.9807914 C13.0887832,19.4411778 11.7293795,20.4541851 10.1740129,20.4541851 C8.61817357,20.4541851 7.25845439,19.4405639 6.79893551,17.979552 L6.68784269,17.6263393 L6.18625991,17.6259036 L2.07434252,17.2331765 L2.0843205,17.2346815 C1.36155771,17.1341335 1.02584906,16.6903826 1.01059491,15.7320691 L1.01008485,15.6653638 L1.01008485,13.0438927 L1.0107308,12.9560274 C1.02248508,12.1446422 1.1983738,11.5764048 1.51457614,11.2330739 L1.53959528,11.2067145 L1.54747696,11.2014921 C1.73503159,11.0778994 1.96636666,10.95274 2.23873642,10.8263076 L2.37832815,10.7629866 C2.40215912,10.7524159 2.42627188,10.7418367 2.45066484,10.7312491 L2.60037223,10.6676252 C2.65138701,10.6463848 2.70350985,10.6251124 2.75672806,10.6038094 L2.91965606,10.53981 L3.08907996,10.475635 L3.26492348,10.4112927 L3.44711036,10.3467912 C3.47799921,10.3360282 3.5091492,10.3252588 3.54055872,10.3144833 L3.73211763,10.2497583 L3.92982921,10.1848944 L4.1336172,10.1198999 L4.34340534,10.0547828 L4.55911734,9.98955131 L4.78067693,9.92421362 L5.00800786,9.85877785 L5.24103384,9.79325215 L5.4796786,9.72764467 L5.84801413,9.62909796 L6.10037218,9.5633217 L6.35808206,9.49749219 L6.62106751,9.43161759 L7.02527053,9.33273894 C7.07082236,9.32174883 7.11658606,9.31075768 7.16256003,9.29976568 C8.41405511,9.00054333 9.74893988,8.71722455 11.0909564,8.45709931 L11.6266507,8.35455507 L11.9572315,8.2925742 L12.4301841,8.20570111 L12.7290255,8.15196228 L13.2105714,8.06748654 L13.4078529,8.03392752 L13.5365614,8.01252601 L13.7139666,7.87271091 L13.8880931,7.73902703 L14.1072515,7.57383223 L14.2866787,7.44063509 L14.476173,7.30176343 L14.675431,7.15757363 C14.7094374,7.13311862 14.743838,7.10845686 14.7786264,7.08359579 C15.6737317,6.44392092 16.639648,5.80416346 17.6390525,5.20770748 C18.8891794,4.46161754 20.1019348,3.83778684 21.2405253,3.3767827 L21.3742768,3.32324714 C22.5292064,2.86636488 23.5732567,2.59420493 24.4767789,2.53137625 L24.5898882,2.52348594 L24.8645124,2.51761358 L25.8715016,2.50668218 L30.5848568,2.48671379 L35.1800211,2.47859825 L40.63066,2.47459145 L41.6316989,2.47419304 Z" id="Combined-Shape-Copy-5" fill="#002C5F" fill-rule="nonzero"></path>
            </g>
        </g>
    </g>
</svg>