<?xml version="1.0" encoding="UTF-8"?>
<svg width="30px" height="32px" viewBox="0 0 30 32" version="1.1" xmlns="http://www.w3.org/2000/svg" xmlns:xlink="http://www.w3.org/1999/xlink">
    <title>Group 25</title>
    <g id="808_Summary-Tech-specification:-Size-and-Shape" stroke="none" stroke-width="1" fill="none" fill-rule="evenodd">
        <g id="Artboard" transform="translate(-792.000000, -100.000000)">
            <g id="Group-25" transform="translate(793.000000, 100.000000)">
                <g id="Group-24" transform="translate(-0.000000, -0.000000)">
                    <path d="M21.113118,0 L22.4450255,1.11885533 L23.2088574,1.76540926 L23.547716,2.0587618 L23.7342602,2.22567888 L23.8644834,2.3472716 L23.9566113,2.4378921 L24.0349429,2.51977232 L24.115381,2.61046689 L24.1700736,2.67668027 L24.2204511,2.74072355 C24.2301582,2.75330087 24.2399293,2.76608094 24.2498366,2.77912935 L24.2498366,2.77912935 L24.4176768,3.00317987 L24.4969789,3.11074106 C24.966554,3.760896 25.3238394,4.49715736 25.5683824,5.31556182 L25.5683824,5.31556182 L25.5839168,5.36918367 L26.2446004,6.33036892 L28.2462847,9.35459572 L28.2462847,18.592092 L28.237173,18.6749975 C28.1326774,19.5058701 27.622886,20 26.8167206,20 L26.8167206,20 L24.2102925,20 L24.1313839,19.9920105 C23.3434722,19.899236 22.8718292,19.4078474 22.8718292,18.6341079 L22.8718292,18.6341079 L22.871876,18.3134694 L5.37428571,18.3134694 L5.37445546,18.6341079 C5.37445546,19.4078474 4.90281244,19.899236 4.11490076,19.9920105 L4.03599217,20 L1.42956408,20 C0.623398658,20 0.113607312,19.5058701 0.00911169083,18.6749975 L0.00261630896,18.6178271 L2.30926389e-14,18.592092 L2.30926389e-14,9.35459572 L2.00168426,6.33036892 L2.6622449,5.36959184 L2.67790227,5.31556182 C2.92244526,4.49715736 3.27973068,3.760896 3.74930575,3.11074106 L3.82860791,3.00317987 L4.01198853,2.75874003 L4.07621111,2.67668027 L4.11973551,2.62368297 L4.17549934,2.55924587 L4.22298133,2.50724918 L4.28901278,2.43856128 L4.38108974,2.34795377 L4.49093583,2.24499938 L4.64686299,2.10444834 L4.83872525,1.93640945 L5.35556128,1.49485996 L7.13316668,0 L21.113118,0 Z M7.36967526,11.6326531 L5.05639599,9.06383713 L5.59816327,6.66469388 L5.59818274,5.04975928 L7.2,1.275 L6.09761454,2.20386678 L5.66380217,2.57303885 L5.3746567,2.82457405 L5.22040305,2.96337963 L5.09769601,3.07881578 L5.02543402,3.15051165 L4.97487112,3.20320656 L4.91855491,3.26520939 L4.88772329,3.30091883 L4.84395954,3.35390753 L4.78223374,3.43274505 L4.64394436,3.61674266 C4.21164362,4.19120798 3.88322182,4.85056451 3.65916584,5.59579302 L3.62071003,5.72819554 L3.59785388,5.80971584 L2.84758593,6.90098503 L1.02040816,9.66122449 L1.02040816,18.5387755 L1.02236458,18.5556875 C1.06122516,18.8748822 1.15605019,18.9718933 1.39848438,18.9791435 L3.9855102,18.9795918 L4.00358567,18.9778786 C4.27378334,18.9475751 4.34773032,18.8748511 4.35364972,18.6637598 L4.35404729,18.6341079 L4.35404729,17.2931033 L23.8922374,17.2931033 L23.8926349,18.6637598 C23.8985543,18.8748511 23.9725013,18.9475751 24.242699,18.9778786 L24.242699,18.9778786 L24.2608556,18.9795918 L26.8478003,18.9791435 C27.0902345,18.9718933 27.1850595,18.8748822 27.2239201,18.5556875 L27.2239201,18.5556875 L27.2259576,18.5387755 L27.2259576,9.66163265 L25.3986987,6.90098503 L24.6484308,5.80971584 L24.6255746,5.72819554 L24.5871188,5.59579302 C24.3630628,4.85056451 24.034641,4.19120798 23.6023403,3.61674266 L23.6023403,3.61674266 L23.4659719,3.43525872 L23.4165769,3.37172531 L23.3782648,3.32444307 L23.3485034,3.2891232 L23.3172663,3.25338717 L23.2482224,3.17873095 L23.1668485,3.09660299 L23.0688594,3.00313187 L22.9278228,2.87458086 L22.6937397,2.66897822 L22.3074086,2.33833787 L21.878,1.977 L23.18322,5.04975928 L23.1832395,6.66469388 L23.7232278,9.05596103 L21.5175255,11.6326531 L7.36967526,11.6326531 Z M21.0477293,10.6122449 L22.6150762,8.78102041 L22.1628119,6.77897715 L22.1628313,5.25714286 L20.363,1.02 L8.417,1.02 L6.61857143,5.25714286 L6.6185909,6.77897715 L6.16795918,8.77346939 L7.82387755,10.6122449 L21.0477293,10.6122449 Z" id="back-view" fill="#002C5F" fill-rule="nonzero"></path>
                    <g id="Group-27" transform="translate(14.311053, 27.911053) rotate(-270.000000) translate(-14.311053, -27.911053) translate(11.482626, 14.000000)" stroke="#002C5F">
                        <g id="Group-28" transform="translate(-0.000000, -0.000000)">
                            <polyline id="Rectangle" transform="translate(2.828427, 24.993679) rotate(-315.000000) translate(-2.828427, -24.993679) " points="4.82842712 22.9936787 4.82842712 26.9936787 0.828427125 26.9936787"></polyline>
                            <polyline id="Rectangle-Copy-4" transform="translate(2.828427, 2.828427) rotate(-135.000000) translate(-2.828427, -2.828427) " points="4.82842712 0.828427125 4.82842712 4.82842712 0.828427125 4.82842712"></polyline>
                            <line x1="2.82842712" y1="0.646988889" x2="2.82842712" y2="27.2193659" id="Line-2" stroke-linecap="square"></line>
                        </g>
                    </g>
                </g>
            </g>
        </g>
    </g>
</svg>